<svg width="50" height="50" viewBox="0 0 50 50" fill="none" xmlns="http://www.w3.org/2000/svg">
<rect width="50" height="50" fill="black" fill-opacity="0"/>
<rect width="50" height="50" fill="black" fill-opacity="0"/>
<path d="M25 50C38.8071 50 50 38.8071 50 25C50 11.1929 38.8071 0 25 0C11.1929 0 0 11.1929 0 25C0 38.8071 11.1929 50 25 50Z" fill="url(#paint0_linear)"/>
<path d="M25 2.08333C12.3435 2.08333 2.08333 12.3435 2.08333 25C2.08333 37.6565 12.3435 47.9167 25 47.9167C37.6565 47.9167 47.9167 37.6565 47.9167 25C47.9167 12.3435 37.6565 2.08333 25 2.08333ZM35.4167 28.0314C35.4167 28.0518 35.4167 28.0721 35.4167 28.0924C35.4167 28.1026 35.4167 28.1148 35.4167 28.125V33.2397C35.4167 35.0138 34.1471 36.5112 32.3995 36.8001L31.2866 36.9853C30.2348 37.1541 29.1697 36.8632 28.359 36.1776C27.5482 35.4919 27.0833 34.4869 27.0833 33.4249C27.0833 31.6528 28.3518 30.1554 30.0995 29.8625L32.0577 29.5369C32.7972 29.4149 33.3333 28.7801 33.3333 28.0314V17.8661L20.8333 19.6536V30.1147C20.8333 30.1351 20.8333 30.1554 20.8323 30.1778C20.8333 30.188 20.8333 30.2002 20.8333 30.2104V35.3231C20.8333 37.0951 19.5648 38.5925 17.8172 38.8855L16.7033 39.0706C16.5049 39.1032 16.3055 39.1195 16.1082 39.1195C15.2598 39.1195 14.4338 38.8204 13.7756 38.2629C12.9649 37.5773 12.5 36.5723 12.5 35.5103C12.5 33.7382 13.7685 32.2408 15.5162 31.9478L17.4744 31.6223C18.2129 31.4982 18.75 30.8634 18.75 30.1147V13.5417C18.75 13.0229 19.1315 12.5834 19.6442 12.5102L34.2275 10.4248C34.5276 10.3882 34.8297 10.4716 35.0576 10.6689C35.2854 10.8663 35.4167 11.1552 35.4167 11.4563V28.0314Z" fill="#FAFAFA"/>
<path opacity="0.2" d="M25 2.60417C32.3597 2.60417 38.9241 5.90094 43.2707 11.1648C39.0879 5.6231 32.4782 2.08333 25 2.08333C17.5218 2.08333 10.9121 5.6231 6.72926 11.1648C11.0759 5.90094 17.6403 2.60417 25 2.60417Z" fill="white"/>
<path opacity="0.1" d="M25 47.3958C17.6403 47.3958 11.0759 44.0991 6.72927 38.8352C7.02643 39.2289 7.33585 39.6125 7.65696 39.9854C11.8556 44.862 18.0531 47.9167 25 47.9167C31.957 47.9167 38.1623 44.8532 42.3612 39.9643C42.6758 39.598 42.9792 39.2214 43.2707 38.8352C38.9241 44.0991 32.3597 47.3958 25 47.3958Z" fill="#010101"/>
<path opacity="0.2" d="M25 0.520833C36.0861 0.520833 45.4955 7.65018 48.8874 17.6025C45.7441 7.38798 36.2322 0 25 0C13.7678 0 4.25588 7.38798 1.11256 17.6025C4.50447 7.65018 13.9139 0.520833 25 0.520833Z" fill="white"/>
<path opacity="0.1" d="M25 49.4792C14.6446 49.4792 5.75225 43.2587 1.86053 34.3276C1.58589 33.6973 1.33615 33.0536 1.11257 32.3975C1.36428 33.2155 1.65682 34.0153 1.98783 34.7947C5.79029 43.7479 14.6672 50 25 50C34.4786 50 42.7322 44.7388 46.9672 36.9576C47.4009 36.1608 47.7925 35.3375 48.1389 34.4907C48.4183 33.8077 48.6683 33.1095 48.8874 32.3975C48.3525 33.9672 47.6678 35.4666 46.8506 36.8789C42.4858 44.4213 34.3377 49.4792 25 49.4792Z" fill="#010101"/>
<path opacity="0.1" d="M15.5162 32.4687L17.4744 32.1431C18.2129 32.019 18.75 31.3843 18.75 30.6356V30.1147C18.75 30.8634 18.2129 31.4982 17.4744 31.6223L15.5162 31.9478C13.7685 32.2408 12.5 33.7382 12.5 35.5103C12.5 35.5899 12.5203 35.6658 12.5256 35.7446C12.6554 34.1016 13.8649 32.7455 15.5162 32.4687Z" fill="#010101"/>
<path opacity="0.1" d="M20.8333 30.7312V30.6356C20.8333 30.6559 20.8333 30.6763 20.8323 30.6986C20.8333 30.7088 20.8333 30.721 20.8333 30.7312Z" fill="#010101"/>
<path opacity="0.1" d="M35.0576 10.6689C34.8297 10.4716 34.5276 10.3882 34.2275 10.4248L19.6442 12.5102C19.1315 12.5834 18.75 13.0229 18.75 13.5417V14.0625C18.75 13.5437 19.1315 13.1042 19.6442 13.031L34.2275 10.9456C34.5276 10.909 34.8297 10.9924 35.0576 11.1898C35.2854 11.3871 35.4167 11.676 35.4167 11.9771V11.4563C35.4167 11.1552 35.2854 10.8663 35.0576 10.6689Z" fill="#010101"/>
<path opacity="0.1" d="M30.0995 30.3833L32.0577 30.0578C32.7972 29.9357 33.3333 29.3009 33.3333 28.5522V28.0314C33.3333 28.7801 32.7972 29.4149 32.0577 29.5369L30.0995 29.8625C28.3518 30.1554 27.0833 31.6528 27.0833 33.4249C27.0833 33.5045 27.1037 33.5804 27.1089 33.6592C27.2387 32.0162 28.4482 30.6601 30.0995 30.3833Z" fill="#010101"/>
<path d="M25 50C38.8071 50 50 38.8071 50 25C50 11.1929 38.8071 0 25 0C11.1929 0 0 11.1929 0 25C0 38.8071 11.1929 50 25 50Z" fill="url(#paint1_linear)"/>
<defs>
<linearGradient id="paint0_linear" x1="12.7996" y1="3.86827" x2="36.8326" y2="45.4946" gradientUnits="userSpaceOnUse">
<stop offset="0.0028864" stop-color="#EC5438"/>
<stop offset="0.307906" stop-color="#F16B94"/>
<stop offset="0.629629" stop-color="#9F3E97"/>
<stop offset="0.759413" stop-color="#8679B8"/>
<stop offset="0.875703" stop-color="#639FD5"/>
<stop offset="0.958464" stop-color="#3BB5E8"/>
<stop offset="1" stop-color="#19BEF0"/>
</linearGradient>
<linearGradient id="paint1_linear" x1="2.3369" y1="14.432" x2="47.6631" y2="35.568" gradientUnits="userSpaceOnUse">
<stop stop-color="white" stop-opacity="0.2"/>
<stop offset="1" stop-color="white" stop-opacity="0"/>
</linearGradient>
</defs>
</svg>
