<svg width="512" height="512" xmlns="http://www.w3.org/2000/svg">

 <g>
  <title>background</title>
  <rect fill="none" id="canvas_background" height="402" width="582" y="-1" x="-1"/>
 </g>
 <g>
  <title fill="#ffffff">Layer 1</title>
  <path id="svg_2" fill="#ffffff" d="m91.1,365.5l-80.6,0c-5.8,0 -10.5,-4.7 -10.5,-10.5l0,-198c0,-5.8 4.7,-10.5 10.5,-10.5l80.6,0c5.8,0 10.5,4.7 10.5,10.5l0,198c0.1,5.8 -4.6,10.5 -10.5,10.5zm-70,-21.1l59.5,0l0,-176.8l-59.5,0l0,176.8z"/>
  <path id="svg_3" fill="#ffffff" d="m275.1,505.7c-2.3,0 -4.5,-0.7 -6.4,-2.2l-184,-140.2c-2.6,-2 -4.2,-5.1 -4.2,-8.4l0,-197.9c0,-3.3 1.5,-6.4 4.2,-8.4l184,-140.2c3.2,-2.4 7.5,-2.8 11.1,-1.1c3.6,1.8 5.9,5.4 5.9,9.5l0,478.3c0,4 -2.3,7.7 -5.9,9.5c-1.5,0.7 -3.1,1.1 -4.7,1.1zm-173.4,-155.9l162.9,124.1l0,-435.7l-162.9,124l0,187.6z"/>
  <g id="svg_4">
   <path id="svg_5" fill="#ffffff" d="m501.5,350.2c-2.7,0 -5.4,-1 -7.5,-3.1l-167.4,-167.3c-4.1,-4.1 -4.1,-10.8 0,-14.9c4.1,-4.1 10.8,-4.1 14.9,0l167.4,167.4c4.1,4.1 4.1,10.8 0,14.9c-2,2 -4.7,3 -7.4,3z"/>
   <path id="svg_6" fill="#ffffff" d="m334.1,350.2c-2.7,0 -5.4,-1 -7.5,-3.1c-4.1,-4.1 -4.1,-10.8 0,-14.9l167.4,-167.4c4.1,-4.1 10.8,-4.1 14.9,0c4.1,4.1 4.1,10.8 0,14.9l-167.4,167.5c-2,2 -4.7,3 -7.4,3z"/>
  </g>
 </g>
</svg>