<svg width="512" height="512" xmlns="http://www.w3.org/2000/svg">

 <g>
  <title>background</title>
  <rect fill="none" id="canvas_background" height="402" width="582" y="-1" x="-1"/>
 </g>
 <g>
  <title>Layer 1</title>
  <rect fill="#4c75a3" fill-rule="nonzero" y="0" x="0" width="512" id="rect2987" height="512"/>
  <path fill="#ffffff" fill-rule="evenodd" id="path9" d="m251.70955,369.14455l23.90722,0c0,0 7.21927,-0.79762 10.91007,-4.76903c3.39705,-3.65021 3.28841,-10.50167 3.28841,-10.50167c0,0 -0.47175,-32.08055 14.42054,-36.80302c14.67964,-4.6544 33.52648,31.00352 53.50297,44.7136c15.10712,10.3751 26.58794,8.10401 26.58794,8.10401l53.41814,-0.74389c0,0 27.93719,-1.7254 14.69046,-23.69711c-1.08421,-1.79346 -7.72077,-16.24983 -39.71651,-45.94943c-33.50267,-31.09426 -29.01187,-26.06134 11.33755,-79.83777c24.56987,-32.75042 34.39689,-52.73881 31.32344,-61.30492c-2.92543,-8.15775 -20.99737,-6.00608 -20.99737,-6.00608l-60.14789,0.37614c0,0 -4.45617,-0.60898 -7.76492,1.36837c-3.22986,1.93675 -5.30509,6.45384 -5.30509,6.45384c0,0 -9.52735,25.34252 -22.21891,46.89512c-26.77781,45.47421 -37.48837,47.88141 -41.86576,45.05151c-10.18409,-6.5816 -7.63722,-26.43388 -7.63722,-40.54397c0,-44.07239 6.68431,-62.45001 -13.02109,-67.20472c-6.53861,-1.57852 -11.353,-2.62571 -28.07453,-2.79407c-21.45819,-0.21851 -39.62332,0.0681 -49.90525,5.10336c-6.84198,3.35887 -12.12325,10.8181 -8.90281,11.25035c3.9749,0.53016 12.97566,2.42511 17.74706,8.92193c6.16377,8.38702 5.94764,27.21599 5.94764,27.21599c0,0 3.54393,51.88028 -8.27001,58.32099c-8.10874,4.42157 -19.22901,-4.60187 -43.10881,-45.86108c-12.23061,-21.1311 -21.46783,-44.49746 -21.46783,-44.49746c0,0 -1.77673,-4.36067 -4.9565,-6.69981c-3.8544,-2.83349 -9.24187,-3.72903 -9.24187,-3.72903l-57.1545,0.37016c0,0 -8.58037,0.24358 -11.72552,3.97499c-2.80725,3.32066 -0.22448,10.18167 -0.22448,10.18167c0,0 44.74226,104.68594 95.40695,157.43907c46.46763,48.38052 99.21848,45.20196 99.21848,45.20196l0,0z"/>
 </g>
</svg>