<svg width="42" height="50" viewBox="0 0 42 50" fill="none" xmlns="http://www.w3.org/2000/svg">
<rect width="41.0785" height="50" fill="black" fill-opacity="0"/>
<rect width="41.0785" height="50" fill="black" fill-opacity="0"/>
<rect width="41.0785" height="50" fill="black" fill-opacity="0"/>
<rect width="41.0785" height="50" fill="black" fill-opacity="0"/>
<rect width="41.0785" height="50" fill="black" fill-opacity="0"/>
<path d="M20.0206 50C31.0777 50 40.0413 41.0474 40.0413 30.0039C40.0413 18.9604 31.0777 10.0078 20.0206 10.0078C8.96354 10.0078 0 18.9604 0 30.0039C0 41.0474 8.96354 50 20.0206 50Z" fill="#FFCC00"/>
<path fill-rule="evenodd" clip-rule="evenodd" d="M30.0456 9.62164L30.0458 28.3282L30.0016 28.343C30.0016 28.3509 30.0016 28.3589 30.0016 28.3669C30.0016 30.1966 29.8688 31.9032 29.6207 32.7743C28.4276 36.9634 24.5682 40.002 19.9913 40.002C14.4627 40.002 10.0397 35.5403 10.0397 30.0186C10.0397 24.4968 14.4627 20.0352 19.9913 20.0352C22.5962 20.0352 24.9687 21.029 26.7496 22.6576C27.3314 23.1897 27.8501 23.7896 28.293 24.4447C28.1701 23.8584 28.0491 23.1207 28.0491 22.4902V7.99257V0L41.0785 3.98749V13.018L30.0456 9.62164Z" fill="#FF3333"/>
</svg>
