<svg width="67" height="67" xmlns="http://www.w3.org/2000/svg">

 <g>
  <title>background</title>
  <rect fill="none" id="canvas_background" height="402" width="582" y="-1" x="-1"/>
 </g>
 <g>
  <title>Layer 1</title>
  <rect stroke="null" id="svg_3" height="68.697848" width="72.053777" y="-0.876597" x="-3.319398" stroke-opacity="null" stroke-width="null" fill="#ffffff"/>
  <path stroke="null" id="svg_1" fill-rule="evenodd" clip-rule="evenodd" fill="#cf3427" d="m44.335036,41.789888c-0.322156,0 -0.553924,0.090389 -0.695302,0.282756c-0.140219,0.17962 -0.20859,0.491346 -0.20859,0.922433l0,1.038317l1.788084,0l0,-1.038317c0,-0.429928 -0.071848,-0.741655 -0.214385,-0.922433c-0.134425,-0.192367 -0.362716,-0.282756 -0.669807,-0.282756zm-6.973875,-0.037083c0.271168,0 0.483235,0.090389 0.630407,0.267691c0.142537,0.178461 0.214385,0.443834 0.214385,0.791485l0,5.310945c0,0.331427 -0.061418,0.564353 -0.177302,0.708049c-0.115884,0.147172 -0.296662,0.220179 -0.544653,0.220179c-0.171508,0 -0.332586,-0.0394 -0.48787,-0.112407c-0.156443,-0.071848 -0.317521,-0.197002 -0.480917,-0.362716l0,-6.409522c0.137901,-0.141378 0.276962,-0.246832 0.417181,-0.314045c0.140219,-0.068371 0.282756,-0.09966 0.428769,-0.09966zm6.071142,3.880942l0,1.938733c0,0.542335 0.066054,0.916639 0.197002,1.128706c0.136743,0.20859 0.362716,0.311727 0.686031,0.311727c0.334904,0 0.568988,-0.088072 0.702255,-0.265373c0.132107,-0.177302 0.202796,-0.56783 0.202796,-1.173901l0,-0.46817l2.080111,0l0,0.52727c0,1.0557 -0.251467,1.850661 -0.761355,2.387202c-0.504094,0.530747 -1.261972,0.794961 -2.269001,0.794961c-0.905051,0 -1.620053,-0.280438 -2.14037,-0.847109c-0.519159,-0.563194 -0.783373,-1.340773 -0.783373,-2.333896l0,-4.61912c0,-0.889986 0.28855,-1.620053 0.859856,-2.180929c0.571306,-0.560877 1.307167,-0.842474 2.214536,-0.842474c0.92591,0 1.637435,0.260738 2.135735,0.781055c0.497141,0.519159 0.743973,1.266608 0.743973,2.242348l0,2.622446l-3.868194,0l0,-0.003477zm-3.621362,4.447612c-0.314045,0.389369 -0.775261,0.580577 -1.375538,0.580577c-0.397481,0 -0.748608,-0.071848 -1.056858,-0.221338c-0.309409,-0.150649 -0.601436,-0.381257 -0.864492,-0.697619l0,0.789167l-2.044187,0l0,-13.943114l2.044187,0l0,4.489331c0.274644,-0.311727 0.562035,-0.552765 0.866809,-0.713843c0.309409,-0.163396 0.618818,-0.244514 0.932863,-0.244514c0.641995,0 1.129865,0.21902 1.465928,0.654742c0.340698,0.439199 0.50757,1.082353 0.50757,1.923668l0,5.708426c0,0.727749 -0.158761,1.285149 -0.476282,1.674518zm-8.882478,0.450787l0,-1.131024c-0.376622,0.41834 -0.762514,0.73702 -1.169265,0.952563c-0.404434,0.221338 -0.794961,0.327951 -1.17506,0.327951c-0.469329,0 -0.816979,-0.150649 -1.058017,-0.458899c-0.232926,-0.30825 -0.353445,-0.762514 -0.353445,-1.377856l0,-8.600881l2.02101,0l0,7.891673c0,0.244514 0.042877,0.419499 0.123995,0.52727c0.08923,0.111248 0.227132,0.164555 0.414863,0.164555c0.148331,0 0.33838,-0.071848 0.565512,-0.217861c0.228291,-0.144854 0.434563,-0.326792 0.628089,-0.550447l0,-7.81519l2.02101,0l0,10.288146l-2.018692,0zm-7.001687,-11.917469l0,11.917469l-2.280589,0l0,-11.917469l-2.357072,0l0,-2.025645l6.994734,0l0,2.025645l-2.357072,0zm9.361077,-6.513817c0,-0.002318 13.998739,0.020859 15.660509,1.680312c1.667565,1.661771 1.686106,9.865171 1.686106,9.912683c0,0 -0.013906,8.247436 -1.686106,9.915001c-1.661771,1.657135 -15.660509,1.693059 -15.660509,1.693059s-13.99758,-0.035924 -15.662827,-1.694218c-1.666406,-1.661771 -1.669883,-9.852423 -1.669883,-9.915001c0,-0.046353 0.004635,-8.250912 1.669883,-9.912683c1.666406,-1.659453 15.662827,-1.681471 15.662827,-1.679153zm11.039071,-4.315505l-2.278272,0l0,-1.251543c-0.414863,0.460058 -0.852903,0.814662 -1.309485,1.053382c-0.454264,0.241038 -0.893463,0.361557 -1.321073,0.361557c-0.530747,0 -0.923592,-0.16919 -1.190125,-0.50757c-0.265373,-0.337221 -0.399798,-0.842474 -0.399798,-1.519234l0,-9.471166l2.273636,0l0,8.687793c0,0.267691 0.052148,0.462376 0.147172,0.581736c0.092707,0.120519 0.250309,0.180778 0.462376,0.180778c0.165714,0 0.378939,-0.078801 0.635042,-0.23872c0.254944,-0.158761 0.490188,-0.361557 0.701096,-0.609548l0,-8.602039l2.278272,0l0,11.334575l0.001159,0zm-12.368256,-1.93178c0.161078,0.170349 0.392845,0.253785 0.695302,0.253785c0.30825,0 0.551606,-0.085754 0.734702,-0.25842c0.181937,-0.176143 0.272326,-0.414863 0.272326,-0.716161l0,-6.173119c0,-0.247991 -0.092707,-0.44847 -0.279279,-0.601436c-0.185414,-0.151808 -0.428769,-0.227132 -0.727749,-0.227132c-0.279279,0 -0.504094,0.075324 -0.679078,0.227132c-0.171508,0.152966 -0.260738,0.353445 -0.260738,0.601436l0,6.173119c0,0.309409 0.083436,0.548129 0.244514,0.720796zm-1.667565,-8.905654c0.611865,-0.520317 1.438115,-0.782214 2.470638,-0.782214c0.940975,0 1.715077,0.274644 2.318831,0.825091c0.599118,0.548129 0.900416,1.255019 0.900416,2.117193l0,5.854439c0,0.968787 -0.295503,1.726666 -0.883033,2.280589c-0.594483,0.551606 -1.404509,0.827409 -2.440509,0.827409c-0.994281,0 -1.792719,-0.285074 -2.391837,-0.852903c-0.594483,-0.568988 -0.894621,-1.334979 -0.894621,-2.297972l0,-5.872981c-0.001159,-0.880715 0.304774,-1.579493 0.920116,-2.098652zm-7.122206,-4.522937l-2.583045,0l3.052374,9.274164l0,6.086207l2.564504,0l0,-6.373598l2.982844,-8.986773l-2.607381,0l-1.58297,6.139513l-0.161078,0l-1.665247,-6.139513zm-24.63917,-13.906032l69.530158,0l0,69.530158l-69.530158,0l0,-69.530158z"/>
  <rect id="svg_2" height="27.435305" width="24.691775" y="7.558128" x="-31.332287" stroke-opacity="null" stroke-width="null" stroke="null" fill="#edd2d0"/>
 </g>
</svg>