<?xml version="1.0" encoding="utf-8"?>
<!-- Generator: Adobe Illustrator 21.0.2, SVG Export Plug-In . SVG Version: 6.00 Build 0)  -->
<svg version="1.1" id="Слой_1" xmlns="http://www.w3.org/2000/svg" xmlns:xlink="http://www.w3.org/1999/xlink" x="0px" y="0px"
	 viewBox="0 0 122 77.667" style="enable-background:new 0 0 122 77.667;" xml:space="preserve">
<style type="text/css">
	.st0{fill:#EE2C37;}
</style>
<g id="Фигура_1">
	<g>
		<path class="st0" d="M29.992,73.77c0.44-0.266,0.662-0.628,0.662-1.088c0-0.305-0.062-0.56-0.185-0.769
			c-0.124-0.207-0.297-0.375-0.517-0.502c-0.22-0.128-0.483-0.217-0.791-0.27c-0.306-0.053-0.641-0.08-1.005-0.08
			c-0.27,0-0.563,0.013-0.877,0.038c-0.314,0.026-0.604,0.062-0.869,0.112v5.584c0.337,0.072,0.66,0.116,0.973,0.137
			c0.311,0.019,0.625,0.029,0.939,0.029c0.866,0,1.518-0.152,1.957-0.456c0.439-0.305,0.659-0.758,0.659-1.364
			c0-0.298-0.067-0.568-0.199-0.805C30.603,74.097,30.356,73.909,29.992,73.77z M27.667,72.134c0.099-0.011,0.212-0.019,0.34-0.021
			c0.126-0.003,0.246-0.003,0.356-0.003c0.341,0,0.601,0.046,0.777,0.14c0.177,0.094,0.265,0.258,0.265,0.49
			c0,0.226-0.085,0.392-0.255,0.494c-0.171,0.104-0.455,0.155-0.852,0.155h-0.628v-1.255H27.667z M29.273,75.732
			c-0.238,0.112-0.549,0.166-0.935,0.166c-0.132,0-0.254-0.002-0.364-0.008c-0.11-0.005-0.212-0.014-0.306-0.026v-1.486h0.81
			c0.37,0,0.654,0.057,0.852,0.171c0.198,0.113,0.298,0.303,0.298,0.568C29.627,75.416,29.509,75.62,29.273,75.732z M37.348,72.313
			c-0.211,0.392-0.431,0.785-0.663,1.177c-0.231-0.392-0.45-0.785-0.652-1.177c-0.204-0.392-0.394-0.786-0.571-1.185h-1.496
			c0.314,0.62,0.641,1.225,0.981,1.812c0.34,0.587,0.695,1.174,1.072,1.761v2.185h1.29v-2.203c0.375-0.587,0.73-1.171,1.067-1.753
			c0.337-0.581,0.662-1.182,0.976-1.804h-1.424C37.752,71.526,37.559,71.922,37.348,72.313z M46.519,75.64
			c-0.088,0.038-0.19,0.073-0.306,0.104c-0.116,0.03-0.247,0.057-0.397,0.078c-0.148,0.022-0.317,0.034-0.504,0.034
			c-0.298,0-0.552-0.049-0.761-0.145c-0.209-0.097-0.38-0.228-0.509-0.394c-0.129-0.166-0.223-0.365-0.281-0.595
			c-0.057-0.23-0.086-0.478-0.086-0.743c0-0.332,0.043-0.614,0.132-0.847c0.088-0.233,0.204-0.423,0.351-0.569
			c0.147-0.147,0.314-0.254,0.504-0.319c0.19-0.065,0.386-0.099,0.584-0.099c0.298,0,0.565,0.033,0.799,0.099
			c0.234,0.067,0.44,0.147,0.616,0.241l0.373-1.048c-0.045-0.027-0.116-0.067-0.215-0.116c-0.099-0.049-0.223-0.097-0.372-0.145
			c-0.148-0.046-0.324-0.089-0.522-0.124c-0.198-0.037-0.419-0.054-0.662-0.054c-0.419,0-0.809,0.065-1.167,0.199
			c-0.359,0.132-0.668,0.329-0.927,0.585c-0.26,0.257-0.463,0.573-0.612,0.946c-0.148,0.373-0.223,0.799-0.223,1.276
			c0,0.959,0.244,1.699,0.732,2.219c0.488,0.52,1.199,0.78,2.131,0.78c0.435,0,0.818-0.045,1.15-0.132
			c0.332-0.089,0.587-0.188,0.77-0.3l-0.356-1.038C46.688,75.566,46.606,75.601,46.519,75.64z M55.115,73.679
			c-0.185-0.466-0.37-0.907-0.553-1.325c-0.183-0.418-0.368-0.826-0.557-1.225H52.78c-0.193,0.399-0.381,0.807-0.56,1.225
			c-0.18,0.418-0.364,0.86-0.549,1.325c-0.185,0.466-0.375,0.96-0.569,1.488c-0.193,0.526-0.399,1.099-0.614,1.719h1.34
			c0.064-0.199,0.131-0.404,0.204-0.614c0.072-0.212,0.145-0.421,0.217-0.632h2.241c0.072,0.207,0.145,0.419,0.22,0.628
			c0.073,0.212,0.142,0.416,0.206,0.617h1.383c-0.215-0.62-0.423-1.193-0.616-1.719C55.49,74.64,55.302,74.144,55.115,73.679z
			 M52.546,74.609c0.091-0.249,0.18-0.486,0.266-0.715c0.088-0.226,0.167-0.434,0.238-0.624c0.072-0.188,0.134-0.354,0.19-0.499
			c0.054-0.144,0.097-0.258,0.126-0.341c0.035,0.081,0.08,0.195,0.134,0.338c0.056,0.144,0.121,0.309,0.195,0.499
			c0.075,0.19,0.152,0.397,0.234,0.625c0.083,0.226,0.167,0.466,0.257,0.715h-1.64V74.609z M63.941,75.611
			c-0.124-0.203-0.25-0.396-0.376-0.582c-0.126-0.185-0.249-0.351-0.364-0.494c0.346-0.144,0.614-0.341,0.799-0.593
			c0.185-0.252,0.278-0.581,0.278-0.984c0-0.648-0.23-1.126-0.687-1.434c-0.458-0.308-1.116-0.461-1.978-0.461
			c-0.238,0-0.507,0.011-0.807,0.034c-0.3,0.022-0.592,0.061-0.872,0.116v5.675h1.292v-2.102h0.638
			c0.11,0.134,0.222,0.281,0.332,0.445c0.112,0.163,0.223,0.337,0.337,0.52c0.115,0.183,0.225,0.372,0.333,0.565
			c0.107,0.195,0.214,0.384,0.319,0.573h1.443c-0.099-0.211-0.207-0.426-0.324-0.644C64.186,76.024,64.066,75.812,63.941,75.611z
			 M62.63,73.571c-0.211,0.121-0.557,0.182-1.043,0.182h-0.364v-1.561c0.067-0.005,0.136-0.011,0.211-0.018
			c0.075-0.005,0.159-0.008,0.252-0.008c0.413,0,0.726,0.059,0.939,0.179c0.212,0.12,0.319,0.321,0.319,0.603
			C62.945,73.242,62.839,73.45,62.63,73.571z M72.477,71.753c-0.287-0.239-0.628-0.415-1.029-0.525
			c-0.4-0.112-0.845-0.166-1.337-0.166c-0.231,0-0.509,0.01-0.831,0.03c-0.324,0.019-0.635,0.056-0.931,0.112v5.608
			c0.298,0.061,0.601,0.1,0.911,0.121c0.309,0.019,0.581,0.029,0.812,0.029c0.507,0,0.965-0.061,1.373-0.183
			c0.408-0.121,0.756-0.305,1.038-0.549c0.284-0.244,0.502-0.55,0.659-0.922c0.155-0.372,0.231-0.807,0.231-1.305
			c0-0.522-0.077-0.967-0.231-1.338C72.986,72.295,72.764,71.99,72.477,71.753z M71.573,75.357c-0.313,0.327-0.791,0.49-1.435,0.49
			c-0.11,0-0.207-0.002-0.287-0.005s-0.15-0.006-0.211-0.011v-3.64c0.083-0.011,0.171-0.019,0.265-0.021
			c0.094-0.003,0.185-0.005,0.273-0.005c0.646,0,1.118,0.155,1.415,0.466c0.298,0.309,0.447,0.767,0.447,1.37
			C72.04,74.579,71.884,75.03,71.573,75.357z M77.369,75.466c-0.198,0-0.376,0.065-0.533,0.195C76.68,75.791,76.6,75.981,76.6,76.23
			c0,0.249,0.08,0.439,0.236,0.568c0.156,0.129,0.335,0.196,0.533,0.196s0.376-0.065,0.534-0.196
			c0.158-0.129,0.236-0.319,0.236-0.568c0-0.249-0.08-0.439-0.236-0.569C77.745,75.529,77.568,75.466,77.369,75.466z M85.529,73.77
			c0.442-0.266,0.662-0.628,0.662-1.088c0-0.305-0.062-0.56-0.185-0.769c-0.124-0.207-0.297-0.375-0.517-0.502
			c-0.22-0.128-0.483-0.217-0.791-0.27c-0.306-0.053-0.641-0.08-1.005-0.08c-0.27,0-0.563,0.013-0.879,0.038
			c-0.314,0.026-0.603,0.062-0.868,0.112v5.584c0.337,0.072,0.66,0.116,0.973,0.137c0.311,0.019,0.625,0.029,0.939,0.029
			c0.866,0,1.518-0.152,1.957-0.456c0.439-0.305,0.659-0.758,0.659-1.364c0-0.298-0.067-0.568-0.199-0.805
			C86.141,74.097,85.892,73.909,85.529,73.77z M83.203,72.134c0.099-0.011,0.212-0.019,0.34-0.021
			c0.128-0.003,0.246-0.003,0.356-0.003c0.341,0,0.601,0.046,0.777,0.14c0.177,0.094,0.265,0.258,0.265,0.49
			c0,0.226-0.086,0.392-0.257,0.494c-0.171,0.104-0.455,0.155-0.852,0.155h-0.628V72.134z M84.809,75.732
			c-0.238,0.112-0.549,0.166-0.935,0.166c-0.132,0-0.254-0.002-0.364-0.008c-0.11-0.005-0.212-0.014-0.306-0.026v-1.486h0.81
			c0.37,0,0.654,0.057,0.852,0.171c0.198,0.113,0.298,0.303,0.298,0.568C85.165,75.416,85.045,75.62,84.809,75.732z M92.886,72.313
			c-0.211,0.392-0.432,0.785-0.663,1.177c-0.231-0.392-0.45-0.785-0.652-1.177c-0.204-0.392-0.394-0.786-0.571-1.185h-1.496
			c0.314,0.62,0.641,1.225,0.981,1.812c0.34,0.587,0.695,1.174,1.072,1.761v2.185h1.289v-2.203c0.375-0.587,0.73-1.171,1.067-1.753
			c0.337-0.581,0.662-1.182,0.976-1.804h-1.424C93.288,71.526,93.095,71.922,92.886,72.313z M9.353,0.923H2.442
			c-1.072,0-1.941,0.872-1.941,1.951v72.064c0,1.077,0.869,1.949,1.941,1.949h6.911c4.668,0,7-2.893,7-8.681V40.713
			c0-2.825-0.892-4.719-2.676-5.684c1.785-0.826,2.676-2.756,2.676-5.788V9.397C16.353,3.748,14.021,0.923,9.353,0.923z
			 M10.177,69.032c0,1.241-0.515,1.86-1.544,1.86H6.676V38.129h1.957c1.029,0,1.544,0.654,1.544,1.963V69.032z M10.177,30.274
			c0,1.241-0.515,1.86-1.544,1.86H6.676V6.917h1.957c1.029,0,1.544,0.654,1.544,1.963V30.274z M37.528,25.574V0.923h-6.177v29.611
			c0,5.029-0.447,9.129-1.338,12.298l-0.309,1.137h-0.617l-0.309-1.137c-0.754-2.895-1.132-6.994-1.132-12.298V0.923h-6.175v24.651
			c0,6.407,0.257,11.024,0.772,13.849c0.514,2.825,1.595,5.925,3.242,9.301l0.927,1.86v15.4h6.177v-15.4l0.927-1.86
			c1.648-3.376,2.727-6.477,3.242-9.301C37.272,36.598,37.528,31.981,37.528,25.574z M51.496,0.51h-1.75
			c-4.667,0-7.002,3.169-7.002,8.322v46.665c0,7.664,2.333,10.903,7.002,10.903h1.75c4.598,0,6.898-3.239,6.898-9.715V36.942h-6.075
			V57.82c0,1.928-0.514,2.893-1.544,2.893h-0.308c-1.099,0-1.648-0.965-1.648-4.08V8.004c0-0.812,0.549-1.81,1.648-1.81h0.308
			c1.03,0,1.544,0.998,1.544,2.997v21.758h6.075V10.017C58.394,3.679,56.095,0.51,51.496,0.51z M75.245,2.99L75.245,2.99
			c-0.699-1.274-2.032-2.067-3.482-2.067h-0.45c-1.448,0-2.783,0.793-3.482,2.067c-1.922,3.515-3.105,6.855-3.552,10.026
			c-0.447,3.169-0.668,7.667-0.668,15.866v37.104h6.177V36.631h3.707v29.353h6.177V28.882c0-7.992-0.241-12.404-0.721-15.608
			C78.471,10.07,77.235,6.641,75.245,2.99z M73.495,30.638h-3.707v-9.3c0-6.069,0.324-9.292,0.973-12.045
			c0.086-0.364,0.404-0.619,0.777-0.619c0.364,0,0.686,0.244,0.772,0.6c0.791,3.257,1.185,6.488,1.185,12.064V30.638z M93.537,0.923
			h-6.703c-1.073,0-1.944,0.874-1.944,1.952v63.11h6.073V36.942h1.957c1.029,0,1.544,0.552,1.544,1.654v27.389h6.073V40.25
			c0-2.962-0.686-5.099-2.059-6.407c1.373-1.172,2.059-3.341,2.059-6.512V9.398C100.538,3.748,98.205,0.923,93.537,0.923z
			 M94.463,29.087c0,1.241-0.515,1.86-1.544,1.86h-1.957V6.917h1.957c1.029,0,1.544,0.654,1.544,1.963V29.087z M114.712,0.923
			h-6.911c-1.073,0-1.943,0.872-1.943,1.949v72.064c0,1.077,0.869,1.951,1.943,1.951h6.911c4.668,0,7-2.893,7-8.681V9.398
			C121.712,3.748,119.38,0.923,114.712,0.923z M115.535,69.032c0,1.239-0.514,1.86-1.544,1.86h-1.957V6.917h1.957
			c1.03,0,1.544,0.656,1.544,1.963V69.032z"/>
	</g>
</g>
</svg>
